<svg width="18" height="16" viewBox="0 0 18 16" fill="none" xmlns="http://www.w3.org/2000/svg">
<path d="M9 6.75V11.75M11.5 9.25H6.5M9.88333 3.25833L8.11667 1.49167C8.0006 1.37546 7.86278 1.28327 7.71107 1.22035C7.55936 1.15744 7.39674 1.12504 7.2325 1.125H2.75C2.25272 1.125 1.77581 1.32254 1.42417 1.67417C1.07254 2.02581 0.875 2.50272 0.875 3V13C0.875 13.4973 1.07254 13.9742 1.42417 14.3258C1.77581 14.6775 2.25272 14.875 2.75 14.875H15.25C15.7473 14.875 16.2242 14.6775 16.5758 14.3258C16.9275 13.9742 17.125 13.4973 17.125 13V5.5C17.125 5.00272 16.9275 4.52581 16.5758 4.17417C16.2242 3.82254 15.7473 3.625 15.25 3.625H10.7675C10.4361 3.62471 10.1175 3.49282 9.88333 3.25833Z" stroke="#708090" stroke-width="1.5" stroke-linecap="round" stroke-linejoin="round"/>
</svg>
