<svg xmlns="http://www.w3.org/2000/svg" viewBox="0 0 242.7 242.79"><defs><style>.cls-1{fill:#000000;}.cls-2{fill:#000000;}</style></defs><title>Asset 1</title><g id="Layer_2" data-name="Layer 2"><g id="Layer_1-2" data-name="Layer 1"><rect class="cls-1" x="2.36" y="134.28" width="108.51" height="108.51"/><rect class="cls-1" x="134.19" y="1.79" width="108.51" height="108.51"/><path class="cls-2" d="M105.13,108.41c-8.42.73-20.68,1.88-46.66,1.88-31,0-58.47-4.78-58.47-31.16V31C0,4.64,27.67,0,58.71,0c26,0,38,1.16,46.42,1.89,3.37.29,4.82,1,4.82,2.89V18.26c0,1.6-2.17,2.9-4.82,2.9H56.3C45,21.16,40.9,23.48,40.9,31v13.2h62.31c2.65,0,4.81,1.3,4.81,2.89V60.87c0,1.59-2.16,2.9-4.81,2.9H40.9V79.13C40.9,86.67,45,89,56.3,89h48.83c2.65,0,4.82,1.3,4.82,2.89v13.49C110,107.25,108.5,108.12,105.13,108.41Z"/><path class="cls-2" d="M242.68,139.77v15.09c0,1.55-1.19,1.83-3.06,1.83h-.57c-9.81-.28-25.19-1.11-42.54-1.11-.8,0-1.53,0-2.27.06-15.21.5-24.51,6.35-24.51,24.1v17.81c0,19.68,12.88,24.21,22.86,24.21,5.73,0,10.84-.16,15.77-.44V205.18h-6.78a2.93,2.93,0,0,1-3-2.87V188.65a2.89,2.89,0,0,1,3-2.88h36.84c2.21,0,4.09,1.27,4.09,2.82v47.82c0,2-1,2.88-4.09,3.27-.62.11-1.25.17-1.87.22a302.69,302.69,0,0,1-44,2.82c-23.25,0-58.25-9.29-58.25-45.28v-17.7c0-36.27,32.5-45.39,62.17-45.39a280,280,0,0,1,42.7,3.26c2,.28,3.47.89,3.47,2.16"/></g></g></svg>