<svg width="64" height="64" viewBox="0 0 64 64" fill="none" xmlns="http://www.w3.org/2000/svg">
<g filter="url(#filter0_d_1202_3516)">
<circle cx="32" cy="28" r="24" fill="#001F3F"/>
</g>
<path fill-rule="evenodd" clip-rule="evenodd" d="M30.8485 26.7873H21.6325C20.9966 26.7873 20.4805 27.3306 20.4805 28C20.4805 28.6694 20.9966 29.2126 21.6325 29.2126H30.8485V38.3073C30.8485 38.9767 31.3646 39.52 32.0005 39.52C32.6364 39.52 33.1525 38.9767 33.1525 38.3073V29.2126H42.3685C43.0044 29.2126 43.5205 28.6694 43.5205 28C43.5205 27.3306 43.0044 26.7873 42.3685 26.7873H33.1525V17.6926C33.1525 17.0232 32.6364 16.48 32.0005 16.48C31.3646 16.48 30.8485 17.0232 30.8485 17.6926V26.7873Z" fill="#F9FAFB"/>
<defs>
<filter id="filter0_d_1202_3516" x="0" y="0" width="64" height="64" filterUnits="userSpaceOnUse" color-interpolation-filters="sRGB">
<feFlood flood-opacity="0" result="BackgroundImageFix"/>
<feColorMatrix in="SourceAlpha" type="matrix" values="0 0 0 0 0 0 0 0 0 0 0 0 0 0 0 0 0 0 127 0" result="hardAlpha"/>
<feOffset dy="4"/>
<feGaussianBlur stdDeviation="4"/>
<feComposite in2="hardAlpha" operator="out"/>
<feColorMatrix type="matrix" values="0 0 0 0 0 0 0 0 0 0.121569 0 0 0 0 0.247059 0 0 0 0.11 0"/>
<feBlend mode="normal" in2="BackgroundImageFix" result="effect1_dropShadow_1202_3516"/>
<feBlend mode="normal" in="SourceGraphic" in2="effect1_dropShadow_1202_3516" result="shape"/>
</filter>
</defs>
</svg>
