<svg width="15" height="15" viewBox="0 0 15 15" fill="none" xmlns="http://www.w3.org/2000/svg">
<path d="M6.75 0H8.25C8.6625 0 9 0.226891 9 0.504202V6.55462C9 6.83193 8.6625 7.05882 8.25 7.05882H6.75C6.3375 7.05882 6 6.83193 6 6.55462V0.504202C6 0.226891 6.3375 0 6.75 0Z" fill="#708090"/>
<path d="M6.75 7.94141H8.25C8.6625 7.94141 9 8.1683 9 8.44561V14.496C9 14.7733 8.6625 15.0002 8.25 15.0002H6.75C6.3375 15.0002 6 14.7733 6 14.496V8.44561C6 8.1683 6.3375 7.94141 6.75 7.94141Z" fill="#708090"/>
<path d="M11.25 0H13.75C14.4375 0 15 0.226891 15 0.504202V6.55462C15 6.83193 14.4375 7.05882 13.75 7.05882H11.25C10.5625 7.05882 10 6.83193 10 6.55462V0.504202C10 0.226891 10.5625 0 11.25 0Z" fill="#708090"/>
<path d="M11.25 7.94141H13.75C14.4375 7.94141 15 8.1683 15 8.44561V14.496C15 14.7733 14.4375 15.0002 13.75 15.0002H11.25C10.5625 15.0002 10 14.7733 10 14.496V8.44561C10 8.1683 10.5625 7.94141 11.25 7.94141Z" fill="#708090"/>
<path d="M1.25 0H3.75C4.4375 0 5 0.226891 5 0.504202V6.55462C5 6.83193 4.4375 7.05882 3.75 7.05882H1.25C0.5625 7.05882 0 6.83193 0 6.55462V0.504202C0 0.226891 0.5625 0 1.25 0Z" fill="#708090"/>
<path d="M1.25 7.94141H3.75C4.4375 7.94141 5 8.1683 5 8.44561V14.496C5 14.7733 4.4375 15.0002 3.75 15.0002H1.25C0.5625 15.0002 0 14.7733 0 14.496V8.44561C0 8.1683 0.5625 7.94141 1.25 7.94141Z" fill="#708090"/>
</svg>
