<svg width="24" height="24" viewBox="0 0 24 24" fill="none" xmlns="http://www.w3.org/2000/svg">
<path d="M-2.42273e-06 12C-2.707e-06 18.6189 5.38105 24 12 24C18.6189 24 24 18.6189 24 12C24 5.38105 18.6189 -2.39392e-07 12 -5.33854e-07C5.38105 -8.28317e-07 -2.13846e-06 5.38105 -2.42273e-06 12ZM14.4253 6.77053C14.6021 6.94737 14.6779 7.14947 14.6779 7.37684C14.6779 7.60421 14.6021 7.83158 14.4253 7.98316L10.4337 12L14.4253 15.9916C14.7537 16.32 14.7537 16.8758 14.4253 17.2042C14.0968 17.5326 13.5411 17.5326 13.2126 17.2042L8.58947 12.6063C8.26105 12.2779 8.26105 11.7221 8.58947 11.3937L13.2126 6.77053C13.5411 6.44211 14.0968 6.44211 14.4253 6.77053Z" fill="#E8EAEB"/>
</svg>
