<svg width="24" height="24" viewBox="0 0 24 24" fill="none" xmlns="http://www.w3.org/2000/svg">
<path fill-rule="evenodd" clip-rule="evenodd" d="M10.8485 10.7873H1.63247C0.996565 10.7873 0.480469 11.3306 0.480469 12C0.480469 12.6694 0.996565 13.2126 1.63247 13.2126H10.8485V22.3073C10.8485 22.9767 11.3646 23.52 12.0005 23.52C12.6364 23.52 13.1525 22.9767 13.1525 22.3073V13.2126H22.3685C23.0044 13.2126 23.5205 12.6694 23.5205 12C23.5205 11.3306 23.0044 10.7873 22.3685 10.7873H13.1525V1.69261C13.1525 1.02324 12.6364 0.47998 12.0005 0.47998C11.3646 0.47998 10.8485 1.02324 10.8485 1.69261V10.7873Z" fill="#F9FAFB"/>
</svg>
